<svg width="64" height="64" viewBox="0 0 64 64" fill="none" xmlns="http://www.w3.org/2000/svg">
  <defs>
    <linearGradient id="bg" x1="10" y1="6" x2="54" y2="58" gradientUnits="userSpaceOnUse">
      <stop stop-color="#12304F"/>
      <stop offset="1" stop-color="#07111F"/>
    </linearGradient>
    <linearGradient id="accent" x1="16" y1="14" x2="48" y2="50" gradientUnits="userSpaceOnUse">
      <stop stop-color="#5EEAD4"/>
      <stop offset="1" stop-color="#38BDF8"/>
    </linearGradient>
  </defs>
  <rect x="4" y="4" width="56" height="56" rx="16" fill="url(#bg)"/>
  <path d="M19 17.5C19 15.567 20.567 14 22.5 14H45C46.1046 14 47 14.8954 47 16V18C47 19.1046 46.1046 20 45 20H26.5C25.1193 20 24 21.1193 24 22.5V27H42C43.1046 27 44 27.8954 44 29V31C44 32.1046 43.1046 33 42 33H24V46C24 47.1046 23.1046 48 22 48H19.5C19.2239 48 19 47.7761 19 47.5V17.5Z" fill="url(#accent)"/>
  <path d="M16 24.5C16 23.6716 16.6716 23 17.5 23H20V27H17.5C16.6716 27 16 26.3284 16 25.5V24.5Z" fill="#5EEAD4"/>
</svg>
